{
  "accessors": [
    {
      "bufferView": 0,
      "componentType": 5125,
      "count": 2724,
      "type": "SCALAR"
    },
    {
      "bufferView": 1,
      "componentType": 5126,
      "count": 551,
      "max": [
        5.20760536193848,
        3.62611603736877,
        5.73317718505859
      ],
      "min": [
        -4.82153940200806,
        -3.12372040748596,
        -0.153201818466187
      ],
      "type": "VEC3"
    },
    {
      "bufferView": 2,
      "componentType": 5126,
      "count": 551,
      "type": "VEC3"
    },
    {
      "bufferView": 3,
      "componentType": 5126,
      "count": 551,
      "type": "VEC2"
    }
  ],
  "asset": {
    "generator": "Substance Painter 6.1.2",
    "version": "2.0"
  },
  "bufferViews": [
    {
      "buffer": 0,
      "byteLength": 10896,
      "target": 34963
    },
    {
      "buffer": 0,
      "byteLength": 6612,
      "byteOffset": 10896,
      "target": 34962
    },
    {
      "buffer": 0,
      "byteLength": 6612,
      "byteOffset": 17508,
      "target": 34962
    },
    {
      "buffer": 0,
      "byteLength": 4408,
      "byteOffset": 24120,
      "target": 34962
    }
  ],
  "buffers": [
    {
      "byteLength": 28528,
      "uri": "Rock.bin"
    }
  ],
  "images": [
    {
      "uri": "rock_baseColor.png"
    },
    {
      "uri": "rock_occlusionRoughnessMetallic.png"
    },
    {
      "uri": "rock_normal.png"
    }
  ],
  "materials": [
    {
      "alphaMode": "OPAQUE",
      "name": "rock",
      "normalTexture": {
        "index": 2
      },
      "occlusionTexture": {
        "index": 1
      },
      "pbrMetallicRoughness": {
        "baseColorTexture": {
          "index": 0
        },
        "metallicRoughnessTexture": {
          "index": 1
        }
      }
    }
  ],
  "meshes": [
    {
      "name": "rock",
      "primitives": [
        {
          "attributes": {
            "NORMAL": 2,
            "POSITION": 1,
            "TEXCOORD_0": 3
          },
          "indices": 0,
          "material": 0,
          "mode": 4
        }
      ]
    }
  ],
  "nodes": [
    {
      "children": [
        1
      ],
      "name": "RootNode"
    },
    {
      "children": [
        2
      ],
      "name": "rock",
      "rotation": [
        -0.70710676908493,
        0.0,
        0.0,
        0.70710676908493
      ]
    },
    {
      "mesh": 0,
      "name": "rock"
    }
  ],
  "samplers": [
    {
      "magFilter": 9729,
      "minFilter": 9985,
      "wrapS": 10497,
      "wrapT": 10497
    }
  ],
  "scene": 0,
  "scenes": [
    {
      "name": "Scene",
      "nodes": [
        0
      ]
    }
  ],
  "textures": [
    {
      "sampler": 0,
      "source": 0
    },
    {
      "sampler": 0,
      "source": 1
    },
    {
      "sampler": 0,
      "source": 2
    }
  ]
}