{
  "accessors": [
    {
      "bufferView": 0,
      "componentType": 5125,
      "count": 2760,
      "type": "SCALAR"
    },
    {
      "bufferView": 1,
      "componentType": 5126,
      "count": 564,
      "max": [
        15.5925025939941,
        20.2280464172363,
        15.5925064086914
      ],
      "min": [
        -15.5925025939941,
        -14.8176259994507,
        -15.5925045013428
      ],
      "type": "VEC3"
    },
    {
      "bufferView": 2,
      "componentType": 5126,
      "count": 564,
      "type": "VEC3"
    },
    {
      "bufferView": 3,
      "componentType": 5126,
      "count": 564,
      "type": "VEC2"
    }
  ],
  "asset": {
    "generator": "Substance Painter 6.1.2",
    "version": "2.0"
  },
  "bufferViews": [
    {
      "buffer": 0,
      "byteLength": 11040,
      "target": 34963
    },
    {
      "buffer": 0,
      "byteLength": 6768,
      "byteOffset": 11040,
      "target": 34962
    },
    {
      "buffer": 0,
      "byteLength": 6768,
      "byteOffset": 17808,
      "target": 34962
    },
    {
      "buffer": 0,
      "byteLength": 4512,
      "byteOffset": 24576,
      "target": 34962
    }
  ],
  "buffers": [
    {
      "byteLength": 29088,
      "uri": "Orange.bin"
    }
  ],
  "images": [
    {
      "uri": "Orange_baseColor.png"
    },
    {
      "uri": "Orange_occlusionRoughnessMetallic.png"
    },
    {
      "uri": "Orange_normal.png"
    }
  ],
  "materials": [
    {
      "alphaMode": "OPAQUE",
      "name": "Orange",
      "normalTexture": {
        "index": 2
      },
      "occlusionTexture": {
        "index": 1
      },
      "pbrMetallicRoughness": {
        "baseColorTexture": {
          "index": 0
        },
        "metallicRoughnessTexture": {
          "index": 1
        }
      }
    }
  ],
  "meshes": [
    {
      "name": "Orange",
      "primitives": [
        {
          "attributes": {
            "NORMAL": 2,
            "POSITION": 1,
            "TEXCOORD_0": 3
          },
          "indices": 0,
          "material": 0,
          "mode": 4
        }
      ]
    }
  ],
  "nodes": [
    {
      "children": [
        1
      ],
      "name": "RootNode"
    },
    {
      "children": [
        2
      ],
      "name": "Orange",
      "rotation": [
        8.14603424714733e-08,
        0.0,
        0.0,
        1.0
      ],
      "scale": [
        2.53999996185303,
        2.53999996185303,
        2.53999996185303
      ]
    },
    {
      "mesh": 0,
      "name": "Orange"
    }
  ],
  "samplers": [
    {
      "magFilter": 9729,
      "minFilter": 9985,
      "wrapS": 10497,
      "wrapT": 10497
    }
  ],
  "scene": 0,
  "scenes": [
    {
      "name": "Scene",
      "nodes": [
        0
      ]
    }
  ],
  "textures": [
    {
      "sampler": 0,
      "source": 0
    },
    {
      "sampler": 0,
      "source": 1
    },
    {
      "sampler": 0,
      "source": 2
    }
  ]
}