{
  "accessors": [
    {
      "bufferView": 0,
      "componentType": 5125,
      "count": 4224,
      "type": "SCALAR"
    },
    {
      "bufferView": 1,
      "componentType": 5126,
      "count": 810,
      "max": [
        34.6483421325684,
        34.3907775878906,
        26.7219657897949
      ],
      "min": [
        -34.6483421325684,
        -34.3907775878906,
        -32.6440887451172
      ],
      "type": "VEC3"
    },
    {
      "bufferView": 2,
      "componentType": 5126,
      "count": 810,
      "type": "VEC3"
    },
    {
      "bufferView": 3,
      "componentType": 5126,
      "count": 810,
      "type": "VEC2"
    },
    {
      "bufferView": 4,
      "componentType": 5125,
      "count": 678,
      "type": "SCALAR"
    },
    {
      "bufferView": 5,
      "componentType": 5126,
      "count": 139,
      "max": [
        0.560051262378693,
        0.591440558433533,
        32.6440887451172
      ],
      "min": [
        -3.57562375068665,
        -1.11289668083191,
        20.2621383666992
      ],
      "type": "VEC3"
    },
    {
      "bufferView": 6,
      "componentType": 5126,
      "count": 139,
      "type": "VEC3"
    },
    {
      "bufferView": 7,
      "componentType": 5126,
      "count": 139,
      "type": "VEC2"
    }
  ],
  "asset": {
    "generator": "Substance Painter 6.1.2",
    "version": "2.0"
  },
  "bufferViews": [
    {
      "buffer": 0,
      "byteLength": 16896,
      "target": 34963
    },
    {
      "buffer": 0,
      "byteLength": 9720,
      "byteOffset": 16896,
      "target": 34962
    },
    {
      "buffer": 0,
      "byteLength": 9720,
      "byteOffset": 26616,
      "target": 34962
    },
    {
      "buffer": 0,
      "byteLength": 6480,
      "byteOffset": 36336,
      "target": 34962
    },
    {
      "buffer": 0,
      "byteLength": 2712,
      "byteOffset": 42816,
      "target": 34963
    },
    {
      "buffer": 0,
      "byteLength": 1668,
      "byteOffset": 45528,
      "target": 34962
    },
    {
      "buffer": 0,
      "byteLength": 1668,
      "byteOffset": 47196,
      "target": 34962
    },
    {
      "buffer": 0,
      "byteLength": 1112,
      "byteOffset": 48864,
      "target": 34962
    }
  ],
  "buffers": [
    {
      "byteLength": 49976,
      "uri": "Manzana.bin"
    }
  ],
  "images": [
    {
      "uri": "Manzana_baseColor.png"
    },
    {
      "uri": "Manzana_occlusionRoughnessMetallic.png"
    },
    {
      "uri": "Manzana_normal.png"
    },
    {
      "uri": "Tallo_baseColor.png"
    },
    {
      "uri": "Tallo_occlusionRoughnessMetallic.png"
    },
    {
      "uri": "Tallo_normal.png"
    }
  ],
  "materials": [
    {
      "alphaMode": "OPAQUE",
      "name": "Manzana",
      "normalTexture": {
        "index": 2
      },
      "occlusionTexture": {
        "index": 1
      },
      "pbrMetallicRoughness": {
        "baseColorTexture": {
          "index": 0
        },
        "metallicRoughnessTexture": {
          "index": 1
        }
      }
    },
    {
      "alphaMode": "OPAQUE",
      "name": "Tallo",
      "normalTexture": {
        "index": 5
      },
      "occlusionTexture": {
        "index": 4
      },
      "pbrMetallicRoughness": {
        "baseColorTexture": {
          "index": 3
        },
        "metallicRoughnessTexture": {
          "index": 4
        }
      }
    }
  ],
  "meshes": [
    {
      "name": "F04 Green apple 3",
      "primitives": [
        {
          "attributes": {
            "NORMAL": 2,
            "POSITION": 1,
            "TEXCOORD_0": 3
          },
          "indices": 0,
          "material": 0,
          "mode": 4
        }
      ]
    },
    {
      "name": "F04 Green apple 3",
      "primitives": [
        {
          "attributes": {
            "NORMAL": 6,
            "POSITION": 5,
            "TEXCOORD_0": 7
          },
          "indices": 4,
          "material": 1,
          "mode": 4
        }
      ]
    }
  ],
  "nodes": [
    {
      "children": [
        1
      ],
      "name": "RootNode"
    },
    {
      "children": [
        2,
        3
      ],
      "name": "F04 Green apple 3",
      "rotation": [
        -0.70710676908493,
        0.0,
        0.0,
        0.70710676908493
      ],
      "scale": [
        0.100000001490116,
        0.100000001490116,
        0.100000001490116
      ],
      "translation": [
        0.532385647296906,
        3.26562428474426,
        0.433467090129852
      ]
    },
    {
      "mesh": 0,
      "name": "F04 Green apple 3"
    },
    {
      "mesh": 1,
      "name": "F04 Green apple 3"
    }
  ],
  "samplers": [
    {
      "magFilter": 9729,
      "minFilter": 9985,
      "wrapS": 10497,
      "wrapT": 10497
    }
  ],
  "scene": 0,
  "scenes": [
    {
      "name": "Scene",
      "nodes": [
        0
      ]
    }
  ],
  "textures": [
    {
      "sampler": 0,
      "source": 0
    },
    {
      "sampler": 0,
      "source": 1
    },
    {
      "sampler": 0,
      "source": 2
    },
    {
      "sampler": 0,
      "source": 3
    },
    {
      "sampler": 0,
      "source": 4
    },
    {
      "sampler": 0,
      "source": 5
    }
  ]
}