<?xml version="1.0" encoding="utf-8"?>
<!-- Generator: Adobe Illustrator 24.0.0, SVG Export Plug-In . SVG Version: 6.00 Build 0)  -->
<svg version="1.1" id="Capa_1" xmlns="http://www.w3.org/2000/svg" xmlns:xlink="http://www.w3.org/1999/xlink" x="0px" y="0px"
	 viewBox="0 0 1920 1080" style="enable-background:new 0 0 1920 1080;" xml:space="preserve">
<style type="text/css">
	.st0{fill:#FFFFFF;}
	.st1{font-family:'Consolas';}
	.st2{font-size:215.0037px;}
</style>
<g>
	<path d="M1408.67,422.59c-56.48-216.31-263.31-365.58-492.86-343.01S512.45,288.83,499.18,511.99L1408.67,422.59z"/>
	<path d="M513.48,657.5c56.48,216.31,263.31,365.58,492.86,343.01s403.35-209.25,416.63-432.42L513.48,657.5z"/>
</g>
<text transform="matrix(0.9952 -0.0978 0.0978 0.9952 814.9445 868.7617)" class="st0 st1 st2">IT!</text>
<text transform="matrix(0.9952 -0.0978 0.0978 0.9952 653.7177 436.9759)" class="st0 st1 st2">SLASH</text>
<g>
	<path d="M1537.1,492.38c0.54,5.47-3.5,10.39-8.97,10.93L398.57,614.35c-5.47,0.54-10.39-3.5-10.93-8.97l-1.75-17.76
		c-0.54-5.47,3.5-10.39,8.97-10.93l1129.56-111.04c5.47-0.54,10.39,3.5,10.93,8.97L1537.1,492.38z"/>
</g>
</svg>
