{
  "accessors": [
    {
      "bufferView": 0,
      "componentType": 5125,
      "count": 2358,
      "type": "SCALAR"
    },
    {
      "bufferView": 1,
      "componentType": 5126,
      "count": 427,
      "max": [
        122.836013793945,
        28.3481121063232,
        22.212890625
      ],
      "min": [
        -129.338973999023,
        -46.8374099731445,
        -93.5868072509766
      ],
      "type": "VEC3"
    },
    {
      "bufferView": 2,
      "componentType": 5126,
      "count": 427,
      "type": "VEC3"
    },
    {
      "bufferView": 3,
      "componentType": 5126,
      "count": 427,
      "type": "VEC2"
    }
  ],
  "asset": {
    "generator": "Substance Painter 6.1.2",
    "version": "2.0"
  },
  "bufferViews": [
    {
      "buffer": 0,
      "byteLength": 9432,
      "target": 34963
    },
    {
      "buffer": 0,
      "byteLength": 5124,
      "byteOffset": 9432,
      "target": 34962
    },
    {
      "buffer": 0,
      "byteLength": 5124,
      "byteOffset": 14556,
      "target": 34962
    },
    {
      "buffer": 0,
      "byteLength": 3416,
      "byteOffset": 19680,
      "target": 34962
    }
  ],
  "buffers": [
    {
      "byteLength": 23096,
      "uri": "PBR - Metallic Roughness SSS.bin"
    }
  ],
  "images": [
    {
      "uri": "BananaMtl_baseColor.png"
    },
    {
      "uri": "BananaMtl_occlusionRoughnessMetallic.png"
    },
    {
      "uri": "BananaMtl_normal.png"
    }
  ],
  "materials": [
    {
      "alphaMode": "OPAQUE",
      "name": "BananaMtl",
      "normalTexture": {
        "index": 2
      },
      "occlusionTexture": {
        "index": 1
      },
      "pbrMetallicRoughness": {
        "baseColorTexture": {
          "index": 0
        },
        "metallicRoughnessTexture": {
          "index": 1
        }
      }
    }
  ],
  "meshes": [
    {
      "name": "Banana_LowPoly",
      "primitives": [
        {
          "attributes": {
            "NORMAL": 2,
            "POSITION": 1,
            "TEXCOORD_0": 3
          },
          "indices": 0,
          "material": 0,
          "mode": 4
        }
      ]
    }
  ],
  "nodes": [
    {
      "children": [
        1
      ],
      "name": "RootNode"
    },
    {
      "children": [
        2
      ],
      "name": "Banana_LowPoly",
      "rotation": [
        -1.03132038020703e-07,
        0.866025388240814,
        -0.500000059604645,
        -2.76341474148012e-08
      ],
      "scale": [
        0.100000001490116,
        0.100000008940697,
        0.100000008940697
      ],
      "translation": [
        -0.405972719192505,
        3.40744185447693,
        -2.26964545249939
      ]
    },
    {
      "mesh": 0,
      "name": "Banana_LowPoly"
    }
  ],
  "samplers": [
    {
      "magFilter": 9729,
      "minFilter": 9985,
      "wrapS": 10497,
      "wrapT": 10497
    }
  ],
  "scene": 0,
  "scenes": [
    {
      "name": "Scene",
      "nodes": [
        0
      ]
    }
  ],
  "textures": [
    {
      "sampler": 0,
      "source": 0
    },
    {
      "sampler": 0,
      "source": 1
    },
    {
      "sampler": 0,
      "source": 2
    }
  ]
}